<svg xmlns="http://www.w3.org/2000/svg" xmlns:xlink="http://www.w3.org/1999/xlink" width="573" zoomAndPan="magnify" viewBox="0 0 429.75 201.000001" height="268" preserveAspectRatio="xMidYMid meet" version="1.2"><defs/><g id="d72a8a668d"><g style="fill:#ffffff;fill-opacity:1;"><g transform="translate(33.279189, 140.453354)"><path style="stroke:none" d="M 21.03125 0.78125 C 15.851562 0.78125 12.140625 -0.359375 9.890625 -2.640625 C 7.648438 -4.929688 6.414062 -8.738281 6.1875 -14.0625 C 6.113281 -17.507812 6.078125 -20.5625 6.078125 -23.21875 C 6.078125 -25.882812 6.1875 -28.984375 6.40625 -32.515625 L 13.5 -32.515625 C 13.34375 -29.210938 13.265625 -25.910156 13.265625 -22.609375 C 13.265625 -19.304688 13.34375 -16.082031 13.5 -12.9375 C 13.644531 -10.382812 14.28125 -8.523438 15.40625 -7.359375 C 16.53125 -6.203125 18.40625 -5.625 21.03125 -5.625 C 23.507812 -5.625 25.289062 -6.203125 26.375 -7.359375 C 27.46875 -8.523438 28.085938 -10.382812 28.234375 -12.9375 C 28.378906 -15.03125 28.453125 -16.898438 28.453125 -18.546875 C 28.453125 -20.203125 28.429688 -21.910156 28.390625 -23.671875 C 28.359375 -25.441406 28.304688 -27.488281 28.234375 -29.8125 C 28.160156 -32.65625 27.765625 -35.015625 27.046875 -36.890625 C 26.335938 -38.765625 24.929688 -39.96875 22.828125 -40.5 L 16.875 -42.0625 C 12.519531 -43.113281 9.664062 -45.023438 8.3125 -47.796875 C 6.96875 -50.578125 6.222656 -54.554688 6.078125 -59.734375 C 6.003906 -62.203125 5.984375 -64.859375 6.015625 -67.703125 C 6.054688 -70.554688 6.113281 -73.335938 6.1875 -76.046875 C 6.257812 -81.285156 7.421875 -85.050781 9.671875 -87.34375 C 11.921875 -89.632812 15.707031 -90.78125 21.03125 -90.78125 C 25.976562 -90.78125 29.554688 -89.632812 31.765625 -87.34375 C 33.984375 -85.050781 35.207031 -81.285156 35.4375 -76.046875 C 35.4375 -73.941406 35.4375 -71.367188 35.4375 -68.328125 C 35.4375 -65.296875 35.394531 -62.128906 35.3125 -58.828125 L 28.125 -58.828125 C 28.195312 -61.828125 28.234375 -64.863281 28.234375 -67.9375 C 28.234375 -71.007812 28.195312 -74.085938 28.125 -77.171875 C 27.96875 -81.960938 25.566406 -84.359375 20.921875 -84.359375 C 18.367188 -84.359375 16.546875 -83.773438 15.453125 -82.609375 C 14.367188 -81.453125 13.753906 -79.640625 13.609375 -77.171875 C 13.460938 -74.242188 13.390625 -71.332031 13.390625 -68.4375 C 13.390625 -65.550781 13.460938 -62.648438 13.609375 -59.734375 C 13.679688 -56.359375 14.070312 -53.84375 14.78125 -52.1875 C 15.5 -50.539062 16.984375 -49.414062 19.234375 -48.8125 L 24.75 -47.46875 C 29.175781 -46.414062 32.082031 -44.460938 33.46875 -41.609375 C 34.851562 -38.765625 35.617188 -34.832031 35.765625 -29.8125 C 35.835938 -27.488281 35.875 -25.535156 35.875 -23.953125 C 35.875 -22.378906 35.851562 -20.84375 35.8125 -19.34375 C 35.78125 -17.84375 35.765625 -16.082031 35.765625 -14.0625 C 35.546875 -8.738281 34.3125 -4.929688 32.0625 -2.640625 C 29.8125 -0.359375 26.132812 0.78125 21.03125 0.78125 Z M 21.03125 0.78125 "/></g></g><g style="fill:#ffffff;fill-opacity:1;"><g transform="translate(74.213592, 140.453354)"><path style="stroke:none" d="M 5.96875 0 L 5.96875 -89.984375 L 13.390625 -89.984375 L 13.390625 -48.59375 L 27.78125 -48.59375 L 27.78125 -89.984375 L 35.203125 -89.984375 L 35.203125 0 L 27.78125 0 L 27.78125 -41.953125 L 13.390625 -41.953125 L 13.390625 0 Z M 5.96875 0 "/></g></g><g style="fill:#ffffff;fill-opacity:1;"><g transform="translate(114.585709, 140.453354)"><path style="stroke:none" d="M 2.921875 0 L 12.59375 -89.984375 L 26.546875 -89.984375 L 36.109375 0 L 28.453125 0 L 26.09375 -26.09375 L 12.9375 -26.09375 L 10.578125 0 Z M 13.609375 -32.84375 L 25.421875 -32.84375 L 23.625 -52.53125 L 21.140625 -83.234375 L 18 -83.234375 L 15.40625 -52.421875 Z M 13.609375 -32.84375 "/></g></g><g style="fill:#ffffff;fill-opacity:1;"><g transform="translate(152.146364, 140.453354)"><path style="stroke:none" d="M 5.96875 0 L 5.96875 -89.984375 L 19.578125 -89.984375 C 24.671875 -89.984375 28.378906 -88.859375 30.703125 -86.609375 C 33.023438 -84.359375 34.265625 -80.648438 34.421875 -75.484375 C 34.640625 -70.453125 34.75 -65.800781 34.75 -61.53125 C 34.75 -57.257812 34.640625 -53.0625 34.421875 -48.9375 C 34.191406 -41.8125 31.753906 -37.382812 27.109375 -35.65625 L 36.21875 0 L 28.234375 0 L 20.015625 -34.3125 L 13.390625 -34.3125 L 13.390625 0 Z M 13.390625 -41.0625 L 19.578125 -41.0625 C 22.117188 -41.0625 23.972656 -41.660156 25.140625 -42.859375 C 26.304688 -44.054688 26.925781 -45.96875 27 -48.59375 C 27.375 -57.664062 27.375 -66.738281 27 -75.8125 C 26.925781 -78.363281 26.304688 -80.238281 25.140625 -81.4375 C 23.972656 -82.632812 22.117188 -83.234375 19.578125 -83.234375 L 13.390625 -83.234375 Z M 13.390625 -41.0625 "/></g></g><g style="fill:#ffffff;fill-opacity:1;"><g transform="translate(190.606675, 140.453354)"><path style="stroke:none" d="M 5.96875 0 L 5.96875 -89.984375 L 19.578125 -89.984375 C 24.671875 -89.984375 28.378906 -88.859375 30.703125 -86.609375 C 33.023438 -84.359375 34.265625 -80.648438 34.421875 -75.484375 C 34.640625 -70.453125 34.75 -65.929688 34.75 -61.921875 C 34.75 -57.910156 34.640625 -53.84375 34.421875 -49.71875 C 34.265625 -44.539062 33.023438 -40.828125 30.703125 -38.578125 C 28.378906 -36.328125 24.671875 -35.203125 19.578125 -35.203125 L 13.390625 -35.203125 L 13.390625 0 Z M 13.390625 -41.84375 L 19.578125 -41.84375 C 22.117188 -41.84375 23.972656 -42.460938 25.140625 -43.703125 C 26.304688 -44.941406 26.925781 -46.832031 27 -49.375 C 27.300781 -58.15625 27.300781 -66.96875 27 -75.8125 C 26.925781 -78.363281 26.304688 -80.238281 25.140625 -81.4375 C 23.972656 -82.632812 22.117188 -83.234375 19.578125 -83.234375 L 13.390625 -83.234375 Z M 13.390625 -41.84375 "/></g></g><g style="fill:#ffffff;fill-opacity:1;"><g transform="translate(228.279942, 140.453354)"><path style="stroke:none" d="M 5.96875 0 L 5.96875 -89.984375 L 31.265625 -89.984375 L 31.265625 -83.234375 L 13.390625 -83.234375 L 13.390625 -48.59375 L 30.140625 -48.59375 L 30.140625 -41.953125 L 13.390625 -41.953125 L 13.390625 0 Z M 5.96875 0 "/></g></g><g style="fill:#ffffff;fill-opacity:1;"><g transform="translate(262.466889, 140.453354)"><path style="stroke:none" d="M 5.96875 0 L 5.96875 -89.984375 L 13.390625 -89.984375 L 13.390625 -6.75 L 31.390625 -6.75 L 31.390625 0 Z M 5.96875 0 "/></g></g><g style="fill:#ffffff;fill-opacity:1;"><g transform="translate(294.516844, 140.453354)"><path style="stroke:none" d="M 21.03125 0.78125 C 15.851562 0.78125 12.117188 -0.34375 9.828125 -2.59375 C 7.546875 -4.84375 6.367188 -8.585938 6.296875 -13.828125 C 6.078125 -24.554688 5.96875 -34.925781 5.96875 -44.9375 C 5.96875 -54.945312 6.078125 -65.351562 6.296875 -76.15625 C 6.367188 -81.40625 7.546875 -85.15625 9.828125 -87.40625 C 12.117188 -89.65625 15.851562 -90.78125 21.03125 -90.78125 C 26.28125 -90.78125 30.03125 -89.65625 32.28125 -87.40625 C 34.53125 -85.15625 35.726562 -81.40625 35.875 -76.15625 C 36.03125 -65.351562 36.109375 -54.945312 36.109375 -44.9375 C 36.109375 -34.925781 36.03125 -24.554688 35.875 -13.828125 C 35.726562 -8.585938 34.53125 -4.84375 32.28125 -2.59375 C 30.03125 -0.34375 26.28125 0.78125 21.03125 0.78125 Z M 21.03125 -5.625 C 23.65625 -5.625 25.53125 -6.148438 26.65625 -7.203125 C 27.78125 -8.253906 28.34375 -10.085938 28.34375 -12.703125 C 28.71875 -23.734375 28.882812 -34.570312 28.84375 -45.21875 C 28.8125 -55.863281 28.644531 -66.550781 28.34375 -77.28125 C 28.34375 -79.90625 27.78125 -81.738281 26.65625 -82.78125 C 25.53125 -83.832031 23.65625 -84.359375 21.03125 -84.359375 C 18.476562 -84.359375 16.640625 -83.832031 15.515625 -82.78125 C 14.390625 -81.738281 13.789062 -79.90625 13.71875 -77.28125 C 13.414062 -66.550781 13.265625 -55.863281 13.265625 -45.21875 C 13.265625 -34.570312 13.414062 -23.734375 13.71875 -12.703125 C 13.789062 -10.085938 14.390625 -8.253906 15.515625 -7.203125 C 16.640625 -6.148438 18.476562 -5.625 21.03125 -5.625 Z M 21.03125 -5.625 "/></g></g><g style="fill:#ffffff;fill-opacity:1;"><g transform="translate(335.451169, 140.453354)"><path style="stroke:none" d="M 9.78125 0 L 3.71875 -89.984375 L 11.25 -89.984375 L 13.15625 -56.125 L 15.640625 -6.75 L 17.65625 -6.75 L 20.578125 -56.125 L 24.296875 -89.421875 L 36 -89.421875 L 39.703125 -56.125 L 42.75 -6.75 L 44.65625 -6.75 L 47.25 -56.125 L 49.265625 -89.984375 L 56.6875 -89.984375 L 50.5 0 L 37.125 0 L 34.3125 -29.46875 L 31.15625 -82.90625 L 29.140625 -82.90625 L 25.984375 -29.46875 L 23.171875 0 Z M 9.78125 0 "/></g></g><path style="fill:none;stroke-width:9;stroke-linecap:butt;stroke-linejoin:miter;stroke:#acf94d;stroke-opacity:1;stroke-miterlimit:4;" d="M -0.000253781 4.498156 L 104.013184 4.498156 " transform="matrix(0.943876,0.000000000000001032,-0.000000000000001032,0.943876,50.68774,158.801174)"/><path style="fill:none;stroke-width:9;stroke-linecap:butt;stroke-linejoin:miter;stroke:#11acec;stroke-opacity:1;stroke-miterlimit:4;" d="M 0.00120407 4.500955 L 57.154117 4.500955 " transform="matrix(0.941553,0,0,0.941553,94.916835,158.801174)"/></g></svg>